<mxfile host="app.diagrams.net" agent="Mozilla/5.0 (Windows NT 10.0; Win64; x64) AppleWebKit/537.36 (KHTML, like Gecko) Chrome/130.0.0.0 Safari/537.36 Edg/130.0.0.0" version="24.8.6">
  <diagram name="Page-1" id="2aRegIJJHSTm-fH6Armb">
    <mxGraphModel dx="2918" dy="1008" grid="1" gridSize="10" guides="1" tooltips="1" connect="1" arrows="1" fold="1" page="1" pageScale="1" pageWidth="850" pageHeight="1100" math="0" shadow="0">
      <root>
        <mxCell id="0" />
        <mxCell id="1" parent="0" />
        <mxCell id="rUdF5XOd5V5QRkSN1bB_-28" style="edgeStyle=orthogonalEdgeStyle;rounded=0;orthogonalLoop=1;jettySize=auto;html=1;exitX=1;exitY=0.5;exitDx=0;exitDy=0;entryX=0;entryY=0.5;entryDx=0;entryDy=0;" edge="1" parent="1" source="rUdF5XOd5V5QRkSN1bB_-5" target="rUdF5XOd5V5QRkSN1bB_-12">
          <mxGeometry relative="1" as="geometry" />
        </mxCell>
        <mxCell id="rUdF5XOd5V5QRkSN1bB_-5" value="Input suara" style="shape=parallelogram;perimeter=parallelogramPerimeter;whiteSpace=wrap;html=1;fixedSize=1;" vertex="1" parent="1">
          <mxGeometry x="610" y="177.5" width="100" height="60" as="geometry" />
        </mxCell>
        <mxCell id="rUdF5XOd5V5QRkSN1bB_-25" value="" style="edgeStyle=orthogonalEdgeStyle;rounded=0;orthogonalLoop=1;jettySize=auto;html=1;" edge="1" parent="1" source="rUdF5XOd5V5QRkSN1bB_-2" target="rUdF5XOd5V5QRkSN1bB_-3">
          <mxGeometry relative="1" as="geometry" />
        </mxCell>
        <mxCell id="rUdF5XOd5V5QRkSN1bB_-2" value="Mulai&amp;nbsp;" style="ellipse;whiteSpace=wrap;html=1;" vertex="1" parent="1">
          <mxGeometry x="425" y="40" width="120" height="80" as="geometry" />
        </mxCell>
        <mxCell id="rUdF5XOd5V5QRkSN1bB_-26" value="" style="edgeStyle=orthogonalEdgeStyle;rounded=0;orthogonalLoop=1;jettySize=auto;html=1;" edge="1" parent="1" source="rUdF5XOd5V5QRkSN1bB_-3" target="rUdF5XOd5V5QRkSN1bB_-10">
          <mxGeometry relative="1" as="geometry" />
        </mxCell>
        <mxCell id="rUdF5XOd5V5QRkSN1bB_-27" value="" style="edgeStyle=orthogonalEdgeStyle;rounded=0;orthogonalLoop=1;jettySize=auto;html=1;" edge="1" parent="1" source="rUdF5XOd5V5QRkSN1bB_-3" target="rUdF5XOd5V5QRkSN1bB_-5">
          <mxGeometry relative="1" as="geometry" />
        </mxCell>
        <mxCell id="rUdF5XOd5V5QRkSN1bB_-3" value="Menggunakan fitur voice-command ?" style="rhombus;whiteSpace=wrap;html=1;" vertex="1" parent="1">
          <mxGeometry x="426.88" y="155" width="118.12" height="105" as="geometry" />
        </mxCell>
        <mxCell id="rUdF5XOd5V5QRkSN1bB_-51" style="edgeStyle=orthogonalEdgeStyle;rounded=0;orthogonalLoop=1;jettySize=auto;html=1;exitX=0.5;exitY=1;exitDx=0;exitDy=0;entryX=0.5;entryY=0;entryDx=0;entryDy=0;" edge="1" parent="1" source="rUdF5XOd5V5QRkSN1bB_-6" target="rUdF5XOd5V5QRkSN1bB_-16">
          <mxGeometry relative="1" as="geometry" />
        </mxCell>
        <mxCell id="rUdF5XOd5V5QRkSN1bB_-6" value="Preheat 120 detik" style="rounded=0;whiteSpace=wrap;html=1;" vertex="1" parent="1">
          <mxGeometry x="115.93" y="440" width="79.99" height="60" as="geometry" />
        </mxCell>
        <mxCell id="rUdF5XOd5V5QRkSN1bB_-39" style="edgeStyle=orthogonalEdgeStyle;rounded=0;orthogonalLoop=1;jettySize=auto;html=1;exitX=0.5;exitY=1;exitDx=0;exitDy=0;entryX=0.5;entryY=0;entryDx=0;entryDy=0;" edge="1" parent="1" source="rUdF5XOd5V5QRkSN1bB_-8" target="rUdF5XOd5V5QRkSN1bB_-31">
          <mxGeometry relative="1" as="geometry" />
        </mxCell>
        <mxCell id="rUdF5XOd5V5QRkSN1bB_-8" value="Input waktu dan suhu" style="shape=parallelogram;perimeter=parallelogramPerimeter;whiteSpace=wrap;html=1;fixedSize=1;" vertex="1" parent="1">
          <mxGeometry x="700" y="320" width="170" height="60" as="geometry" />
        </mxCell>
        <mxCell id="rUdF5XOd5V5QRkSN1bB_-30" style="edgeStyle=orthogonalEdgeStyle;rounded=0;orthogonalLoop=1;jettySize=auto;html=1;exitX=1;exitY=0.5;exitDx=0;exitDy=0;entryX=0;entryY=0.5;entryDx=0;entryDy=0;" edge="1" parent="1" source="rUdF5XOd5V5QRkSN1bB_-10" target="rUdF5XOd5V5QRkSN1bB_-8">
          <mxGeometry relative="1" as="geometry" />
        </mxCell>
        <mxCell id="rUdF5XOd5V5QRkSN1bB_-36" style="edgeStyle=orthogonalEdgeStyle;rounded=0;orthogonalLoop=1;jettySize=auto;html=1;exitX=0;exitY=0.5;exitDx=0;exitDy=0;" edge="1" parent="1" source="rUdF5XOd5V5QRkSN1bB_-10" target="rUdF5XOd5V5QRkSN1bB_-11">
          <mxGeometry relative="1" as="geometry" />
        </mxCell>
        <mxCell id="rUdF5XOd5V5QRkSN1bB_-10" value="Manual atau tidak" style="rhombus;whiteSpace=wrap;html=1;" vertex="1" parent="1">
          <mxGeometry x="421.88" y="290" width="128.12" height="120" as="geometry" />
        </mxCell>
        <mxCell id="rUdF5XOd5V5QRkSN1bB_-46" style="edgeStyle=orthogonalEdgeStyle;rounded=0;orthogonalLoop=1;jettySize=auto;html=1;exitX=0.5;exitY=1;exitDx=0;exitDy=0;entryX=0.5;entryY=0;entryDx=0;entryDy=0;" edge="1" parent="1" source="rUdF5XOd5V5QRkSN1bB_-11" target="rUdF5XOd5V5QRkSN1bB_-13">
          <mxGeometry relative="1" as="geometry" />
        </mxCell>
        <mxCell id="rUdF5XOd5V5QRkSN1bB_-47" style="edgeStyle=orthogonalEdgeStyle;rounded=0;orthogonalLoop=1;jettySize=auto;html=1;exitX=0.5;exitY=1;exitDx=0;exitDy=0;" edge="1" parent="1" source="rUdF5XOd5V5QRkSN1bB_-11" target="rUdF5XOd5V5QRkSN1bB_-15">
          <mxGeometry relative="1" as="geometry" />
        </mxCell>
        <mxCell id="rUdF5XOd5V5QRkSN1bB_-48" style="edgeStyle=orthogonalEdgeStyle;rounded=0;orthogonalLoop=1;jettySize=auto;html=1;exitX=0.5;exitY=1;exitDx=0;exitDy=0;entryX=0.5;entryY=0;entryDx=0;entryDy=0;" edge="1" parent="1" source="rUdF5XOd5V5QRkSN1bB_-11" target="rUdF5XOd5V5QRkSN1bB_-6">
          <mxGeometry relative="1" as="geometry" />
        </mxCell>
        <mxCell id="rUdF5XOd5V5QRkSN1bB_-49" style="edgeStyle=orthogonalEdgeStyle;rounded=0;orthogonalLoop=1;jettySize=auto;html=1;exitX=0.5;exitY=1;exitDx=0;exitDy=0;entryX=0.5;entryY=0;entryDx=0;entryDy=0;" edge="1" parent="1" source="rUdF5XOd5V5QRkSN1bB_-11" target="rUdF5XOd5V5QRkSN1bB_-14">
          <mxGeometry relative="1" as="geometry" />
        </mxCell>
        <mxCell id="rUdF5XOd5V5QRkSN1bB_-11" value="Masukkan Preset&amp;nbsp;" style="shape=parallelogram;perimeter=parallelogramPerimeter;whiteSpace=wrap;html=1;fixedSize=1;" vertex="1" parent="1">
          <mxGeometry x="164.99" y="320" width="130" height="60" as="geometry" />
        </mxCell>
        <mxCell id="rUdF5XOd5V5QRkSN1bB_-29" value="" style="edgeStyle=orthogonalEdgeStyle;rounded=0;orthogonalLoop=1;jettySize=auto;html=1;" edge="1" parent="1" source="rUdF5XOd5V5QRkSN1bB_-12" target="rUdF5XOd5V5QRkSN1bB_-8">
          <mxGeometry relative="1" as="geometry" />
        </mxCell>
        <mxCell id="rUdF5XOd5V5QRkSN1bB_-12" value="Pencocokan dengan kata kunci" style="rounded=0;whiteSpace=wrap;html=1;" vertex="1" parent="1">
          <mxGeometry x="730" y="177.5" width="110" height="60" as="geometry" />
        </mxCell>
        <mxCell id="rUdF5XOd5V5QRkSN1bB_-53" style="edgeStyle=orthogonalEdgeStyle;rounded=0;orthogonalLoop=1;jettySize=auto;html=1;exitX=0.5;exitY=1;exitDx=0;exitDy=0;entryX=0.5;entryY=0;entryDx=0;entryDy=0;" edge="1" parent="1" source="rUdF5XOd5V5QRkSN1bB_-13" target="rUdF5XOd5V5QRkSN1bB_-16">
          <mxGeometry relative="1" as="geometry" />
        </mxCell>
        <mxCell id="rUdF5XOd5V5QRkSN1bB_-13" value="Popcorn 180 deitk" style="rounded=0;whiteSpace=wrap;html=1;" vertex="1" parent="1">
          <mxGeometry x="374.99" y="440" width="80.01" height="60" as="geometry" />
        </mxCell>
        <mxCell id="rUdF5XOd5V5QRkSN1bB_-52" style="edgeStyle=orthogonalEdgeStyle;rounded=0;orthogonalLoop=1;jettySize=auto;html=1;exitX=0.5;exitY=1;exitDx=0;exitDy=0;" edge="1" parent="1" source="rUdF5XOd5V5QRkSN1bB_-14">
          <mxGeometry relative="1" as="geometry">
            <mxPoint x="230" y="540" as="targetPoint" />
          </mxGeometry>
        </mxCell>
        <mxCell id="rUdF5XOd5V5QRkSN1bB_-14" value="Baking 900 detik" style="rounded=0;whiteSpace=wrap;html=1;" vertex="1" parent="1">
          <mxGeometry x="259.99" y="440" width="85.01" height="60" as="geometry" />
        </mxCell>
        <mxCell id="rUdF5XOd5V5QRkSN1bB_-50" style="edgeStyle=orthogonalEdgeStyle;rounded=0;orthogonalLoop=1;jettySize=auto;html=1;exitX=0.5;exitY=1;exitDx=0;exitDy=0;" edge="1" parent="1" source="rUdF5XOd5V5QRkSN1bB_-15" target="rUdF5XOd5V5QRkSN1bB_-16">
          <mxGeometry relative="1" as="geometry">
            <Array as="points">
              <mxPoint x="20" y="520" />
            </Array>
          </mxGeometry>
        </mxCell>
        <mxCell id="rUdF5XOd5V5QRkSN1bB_-15" value="Scan dan Masukkan kode pemanasan" style="rounded=0;whiteSpace=wrap;html=1;" vertex="1" parent="1">
          <mxGeometry x="-40" y="440" width="120" height="60" as="geometry" />
        </mxCell>
        <mxCell id="rUdF5XOd5V5QRkSN1bB_-45" style="edgeStyle=orthogonalEdgeStyle;rounded=0;orthogonalLoop=1;jettySize=auto;html=1;exitX=0;exitY=0.5;exitDx=0;exitDy=0;entryX=0;entryY=0.5;entryDx=0;entryDy=0;" edge="1" parent="1" source="rUdF5XOd5V5QRkSN1bB_-16" target="rUdF5XOd5V5QRkSN1bB_-11">
          <mxGeometry relative="1" as="geometry">
            <Array as="points">
              <mxPoint x="-110" y="600" />
              <mxPoint x="-110" y="350" />
            </Array>
          </mxGeometry>
        </mxCell>
        <mxCell id="rUdF5XOd5V5QRkSN1bB_-54" style="edgeStyle=orthogonalEdgeStyle;rounded=0;orthogonalLoop=1;jettySize=auto;html=1;exitX=1;exitY=0.5;exitDx=0;exitDy=0;entryX=0;entryY=0.5;entryDx=0;entryDy=0;" edge="1" parent="1" source="rUdF5XOd5V5QRkSN1bB_-16" target="rUdF5XOd5V5QRkSN1bB_-18">
          <mxGeometry relative="1" as="geometry">
            <mxPoint x="690" y="600" as="targetPoint" />
          </mxGeometry>
        </mxCell>
        <mxCell id="rUdF5XOd5V5QRkSN1bB_-16" value="Apakah yakin dengan opsi ini ?" style="rhombus;whiteSpace=wrap;html=1;" vertex="1" parent="1">
          <mxGeometry x="160.46" y="540" width="139.05" height="120" as="geometry" />
        </mxCell>
        <mxCell id="rUdF5XOd5V5QRkSN1bB_-58" style="edgeStyle=orthogonalEdgeStyle;rounded=0;orthogonalLoop=1;jettySize=auto;html=1;exitX=0.5;exitY=1;exitDx=0;exitDy=0;entryX=0.5;entryY=0;entryDx=0;entryDy=0;" edge="1" parent="1" source="rUdF5XOd5V5QRkSN1bB_-18" target="rUdF5XOd5V5QRkSN1bB_-19">
          <mxGeometry relative="1" as="geometry" />
        </mxCell>
        <mxCell id="rUdF5XOd5V5QRkSN1bB_-18" value="Masak sesuai dengan waktu dan suhu" style="rounded=0;whiteSpace=wrap;html=1;" vertex="1" parent="1">
          <mxGeometry x="710" y="570" width="150" height="60" as="geometry" />
        </mxCell>
        <mxCell id="rUdF5XOd5V5QRkSN1bB_-59" style="edgeStyle=orthogonalEdgeStyle;rounded=0;orthogonalLoop=1;jettySize=auto;html=1;exitX=0.5;exitY=1;exitDx=0;exitDy=0;entryX=0.5;entryY=0;entryDx=0;entryDy=0;" edge="1" parent="1" source="rUdF5XOd5V5QRkSN1bB_-19" target="rUdF5XOd5V5QRkSN1bB_-20">
          <mxGeometry relative="1" as="geometry" />
        </mxCell>
        <mxCell id="rUdF5XOd5V5QRkSN1bB_-64" style="edgeStyle=orthogonalEdgeStyle;rounded=0;orthogonalLoop=1;jettySize=auto;html=1;exitX=0;exitY=0.5;exitDx=0;exitDy=0;entryX=1;entryY=0.5;entryDx=0;entryDy=0;" edge="1" parent="1" source="rUdF5XOd5V5QRkSN1bB_-19" target="rUdF5XOd5V5QRkSN1bB_-23">
          <mxGeometry relative="1" as="geometry" />
        </mxCell>
        <mxCell id="rUdF5XOd5V5QRkSN1bB_-19" value="Apakah terdeteksi asap ?" style="rhombus;whiteSpace=wrap;html=1;" vertex="1" parent="1">
          <mxGeometry x="705.4599999999999" y="660" width="159.07" height="120" as="geometry" />
        </mxCell>
        <mxCell id="rUdF5XOd5V5QRkSN1bB_-61" style="edgeStyle=orthogonalEdgeStyle;rounded=0;orthogonalLoop=1;jettySize=auto;html=1;exitX=0.5;exitY=1;exitDx=0;exitDy=0;entryX=0.5;entryY=0;entryDx=0;entryDy=0;" edge="1" parent="1" source="rUdF5XOd5V5QRkSN1bB_-20" target="rUdF5XOd5V5QRkSN1bB_-21">
          <mxGeometry relative="1" as="geometry" />
        </mxCell>
        <mxCell id="rUdF5XOd5V5QRkSN1bB_-20" value="Cek Timer" style="rounded=0;whiteSpace=wrap;html=1;" vertex="1" parent="1">
          <mxGeometry x="747.73" y="810" width="74.53" height="40" as="geometry" />
        </mxCell>
        <mxCell id="rUdF5XOd5V5QRkSN1bB_-81" style="edgeStyle=orthogonalEdgeStyle;rounded=0;orthogonalLoop=1;jettySize=auto;html=1;exitX=1;exitY=0.5;exitDx=0;exitDy=0;entryX=1;entryY=0.5;entryDx=0;entryDy=0;" edge="1" parent="1" source="rUdF5XOd5V5QRkSN1bB_-21" target="rUdF5XOd5V5QRkSN1bB_-19">
          <mxGeometry relative="1" as="geometry" />
        </mxCell>
        <mxCell id="rUdF5XOd5V5QRkSN1bB_-21" value="Apakah selesai ?" style="rhombus;whiteSpace=wrap;html=1;" vertex="1" parent="1">
          <mxGeometry x="717.49" y="870" width="132.51" height="90" as="geometry" />
        </mxCell>
        <mxCell id="rUdF5XOd5V5QRkSN1bB_-85" style="edgeStyle=orthogonalEdgeStyle;rounded=0;orthogonalLoop=1;jettySize=auto;html=1;exitX=0;exitY=0.5;exitDx=0;exitDy=0;entryX=0.5;entryY=1;entryDx=0;entryDy=0;" edge="1" parent="1" source="rUdF5XOd5V5QRkSN1bB_-22" target="rUdF5XOd5V5QRkSN1bB_-23">
          <mxGeometry relative="1" as="geometry" />
        </mxCell>
        <mxCell id="rUdF5XOd5V5QRkSN1bB_-89" style="edgeStyle=orthogonalEdgeStyle;rounded=0;orthogonalLoop=1;jettySize=auto;html=1;exitX=0.5;exitY=1;exitDx=0;exitDy=0;entryX=1;entryY=0.5;entryDx=0;entryDy=0;" edge="1" parent="1" source="rUdF5XOd5V5QRkSN1bB_-22" target="rUdF5XOd5V5QRkSN1bB_-18">
          <mxGeometry relative="1" as="geometry">
            <Array as="points">
              <mxPoint x="598" y="960" />
              <mxPoint x="598" y="980" />
              <mxPoint x="910" y="980" />
              <mxPoint x="910" y="600" />
            </Array>
          </mxGeometry>
        </mxCell>
        <mxCell id="rUdF5XOd5V5QRkSN1bB_-93" value="" style="edgeStyle=orthogonalEdgeStyle;rounded=0;orthogonalLoop=1;jettySize=auto;html=1;" edge="1" parent="1" source="rUdF5XOd5V5QRkSN1bB_-22" target="rUdF5XOd5V5QRkSN1bB_-21">
          <mxGeometry relative="1" as="geometry" />
        </mxCell>
        <mxCell id="rUdF5XOd5V5QRkSN1bB_-22" value="Tambahan waktu ?" style="rhombus;whiteSpace=wrap;html=1;" vertex="1" parent="1">
          <mxGeometry x="532.5" y="870" width="135" height="90" as="geometry" />
        </mxCell>
        <mxCell id="rUdF5XOd5V5QRkSN1bB_-77" value="" style="edgeStyle=orthogonalEdgeStyle;rounded=0;orthogonalLoop=1;jettySize=auto;html=1;" edge="1" parent="1" source="rUdF5XOd5V5QRkSN1bB_-23" target="rUdF5XOd5V5QRkSN1bB_-24">
          <mxGeometry relative="1" as="geometry" />
        </mxCell>
        <mxCell id="rUdF5XOd5V5QRkSN1bB_-23" value="Matikan microwave dan Timer" style="rounded=0;whiteSpace=wrap;html=1;" vertex="1" parent="1">
          <mxGeometry x="320" y="690" width="150" height="60" as="geometry" />
        </mxCell>
        <mxCell id="rUdF5XOd5V5QRkSN1bB_-24" value="Selesai" style="ellipse;whiteSpace=wrap;html=1;" vertex="1" parent="1">
          <mxGeometry x="110" y="680" width="120" height="80" as="geometry" />
        </mxCell>
        <mxCell id="rUdF5XOd5V5QRkSN1bB_-40" style="edgeStyle=orthogonalEdgeStyle;rounded=0;orthogonalLoop=1;jettySize=auto;html=1;exitX=0.5;exitY=1;exitDx=0;exitDy=0;entryX=0.5;entryY=0;entryDx=0;entryDy=0;" edge="1" parent="1" source="rUdF5XOd5V5QRkSN1bB_-31" target="rUdF5XOd5V5QRkSN1bB_-18">
          <mxGeometry relative="1" as="geometry" />
        </mxCell>
        <mxCell id="rUdF5XOd5V5QRkSN1bB_-44" style="edgeStyle=orthogonalEdgeStyle;rounded=0;orthogonalLoop=1;jettySize=auto;html=1;exitX=1;exitY=0.5;exitDx=0;exitDy=0;entryX=1;entryY=0.5;entryDx=0;entryDy=0;" edge="1" parent="1" source="rUdF5XOd5V5QRkSN1bB_-31" target="rUdF5XOd5V5QRkSN1bB_-8">
          <mxGeometry relative="1" as="geometry">
            <Array as="points">
              <mxPoint x="900" y="460" />
              <mxPoint x="900" y="350" />
            </Array>
          </mxGeometry>
        </mxCell>
        <mxCell id="rUdF5XOd5V5QRkSN1bB_-31" value="Apakah yakin dengan opsi ini ?" style="rhombus;whiteSpace=wrap;html=1;" vertex="1" parent="1">
          <mxGeometry x="715.47" y="400" width="139.05" height="120" as="geometry" />
        </mxCell>
        <mxCell id="rUdF5XOd5V5QRkSN1bB_-32" value="Ya" style="text;html=1;align=center;verticalAlign=middle;resizable=0;points=[];autosize=1;strokeColor=none;fillColor=none;" vertex="1" parent="1">
          <mxGeometry x="550" y="178" width="40" height="30" as="geometry" />
        </mxCell>
        <mxCell id="rUdF5XOd5V5QRkSN1bB_-34" value="Tidak" style="text;html=1;align=center;verticalAlign=middle;resizable=0;points=[];autosize=1;strokeColor=none;fillColor=none;" vertex="1" parent="1">
          <mxGeometry x="480" y="260" width="50" height="30" as="geometry" />
        </mxCell>
        <mxCell id="rUdF5XOd5V5QRkSN1bB_-35" value="Tidak" style="text;html=1;align=center;verticalAlign=middle;resizable=0;points=[];autosize=1;strokeColor=none;fillColor=none;" vertex="1" parent="1">
          <mxGeometry x="595" y="318" width="50" height="30" as="geometry" />
        </mxCell>
        <mxCell id="rUdF5XOd5V5QRkSN1bB_-37" value="Ya" style="text;html=1;align=center;verticalAlign=middle;resizable=0;points=[];autosize=1;strokeColor=none;fillColor=none;" vertex="1" parent="1">
          <mxGeometry x="345" y="318" width="40" height="30" as="geometry" />
        </mxCell>
        <mxCell id="rUdF5XOd5V5QRkSN1bB_-42" value="Tidak" style="text;html=1;align=center;verticalAlign=middle;resizable=0;points=[];autosize=1;strokeColor=none;fillColor=none;" vertex="1" parent="1">
          <mxGeometry x="900" y="390" width="50" height="30" as="geometry" />
        </mxCell>
        <mxCell id="rUdF5XOd5V5QRkSN1bB_-55" value="Ya" style="text;html=1;align=center;verticalAlign=middle;resizable=0;points=[];autosize=1;strokeColor=none;fillColor=none;" vertex="1" parent="1">
          <mxGeometry x="440" y="570" width="40" height="30" as="geometry" />
        </mxCell>
        <mxCell id="rUdF5XOd5V5QRkSN1bB_-56" value="Tidak" style="text;html=1;align=center;verticalAlign=middle;resizable=0;points=[];autosize=1;strokeColor=none;fillColor=none;" vertex="1" parent="1">
          <mxGeometry x="-160" y="455" width="50" height="30" as="geometry" />
        </mxCell>
        <mxCell id="rUdF5XOd5V5QRkSN1bB_-62" value="Tidak" style="text;html=1;align=center;verticalAlign=middle;resizable=0;points=[];autosize=1;strokeColor=none;fillColor=none;" vertex="1" parent="1">
          <mxGeometry x="775" y="778" width="50" height="30" as="geometry" />
        </mxCell>
        <mxCell id="rUdF5XOd5V5QRkSN1bB_-63" value="Ya" style="text;html=1;align=center;verticalAlign=middle;resizable=0;points=[];autosize=1;strokeColor=none;fillColor=none;" vertex="1" parent="1">
          <mxGeometry x="580" y="690" width="40" height="30" as="geometry" />
        </mxCell>
        <mxCell id="rUdF5XOd5V5QRkSN1bB_-74" value="Ya" style="text;html=1;align=center;verticalAlign=middle;resizable=0;points=[];autosize=1;strokeColor=none;fillColor=none;" vertex="1" parent="1">
          <mxGeometry x="747.73" y="990" width="40" height="30" as="geometry" />
        </mxCell>
        <mxCell id="rUdF5XOd5V5QRkSN1bB_-76" value="Tidak" style="text;html=1;align=center;verticalAlign=middle;resizable=0;points=[];autosize=1;strokeColor=none;fillColor=none;" vertex="1" parent="1">
          <mxGeometry x="840" y="870" width="50" height="30" as="geometry" />
        </mxCell>
        <mxCell id="rUdF5XOd5V5QRkSN1bB_-86" value="Tidak" style="text;html=1;align=center;verticalAlign=middle;resizable=0;points=[];autosize=1;strokeColor=none;fillColor=none;" vertex="1" parent="1">
          <mxGeometry x="435" y="880" width="50" height="30" as="geometry" />
        </mxCell>
        <mxCell id="rUdF5XOd5V5QRkSN1bB_-94" value="Ya" style="text;html=1;align=center;verticalAlign=middle;resizable=0;points=[];autosize=1;strokeColor=none;fillColor=none;" vertex="1" parent="1">
          <mxGeometry x="668.46" y="887" width="40" height="30" as="geometry" />
        </mxCell>
      </root>
    </mxGraphModel>
  </diagram>
</mxfile>
